<?xml version="1.0" encoding="utf-8"?>
<!-- Generator: Adobe Illustrator 18.1.1, SVG Export Plug-In . SVG Version: 6.00 Build 0)  -->
<svg version="1.1" id="Layer_1" xmlns="http://www.w3.org/2000/svg" xmlns:xlink="http://www.w3.org/1999/xlink" x="0px" y="0px"
	 viewBox="0 0 144 58.2" enable-background="new 0 0 144 58.2" xml:space="preserve">
<g>
	<path d="M60.6,32.1c0.4,0,0.6,0.2,0.8,0.6c0.1,0.4,0.1,0.7,0,1.1c-0.2,0.8-0.6,1.6-1.3,2.2c-0.2,0.2-0.5,0.4-0.8,0.5
		c-0.6,0.3-1.1,0.6-1.6,0.9c-0.4,0.2-0.7,0.4-1.1,0.5c-0.1,0-0.1,0.1-0.2,0.1c-0.2,0.1-0.4,0.2-0.6,0.4c-0.2,0.1-0.5,0.3-0.7,0.4
		c-0.2,0.1-0.5,0.2-0.7,0.4c-0.3,0.2-0.7,0.3-1,0.5c-0.5,0.2-0.9,0.5-1.4,0.7c-0.1,0.1-0.3,0.1-0.5,0.1c0,0-0.1,0-0.1,0
		c-0.2,0.1-0.4,0.1-0.6-0.1c-0.2-0.2-0.3-0.4-0.4-0.6c-0.1-0.3-0.1-0.5,0-0.8c0.3-1.3,0.9-2.3,2.1-2.9c2-1,4-2.1,6-3.1
		c0.5-0.3,1-0.5,1.5-0.7C60.2,32.2,60.4,32.1,60.6,32.1z"/>
	<path d="M49.9,46.2c0-0.5,0.2-1,0.4-1.5c0.4-0.7,0.9-1.3,1.7-1.7c1-0.5,2-1.1,3-1.6c1.4-0.7,2.8-1.5,4.2-2.2
		c0.1-0.1,0.2-0.1,0.4-0.2c0.7-0.3,1.3,0,1.3,0.9c0,0.5-0.2,1-0.4,1.4c-0.2,0.3-0.4,0.7-0.6,1c-0.2,0.2-0.4,0.4-0.7,0.6
		c-0.5,0.4-1.1,0.7-1.7,1c-0.2,0.1-0.4,0.2-0.6,0.3c-0.4,0.2-0.7,0.4-1.1,0.6c-0.6,0.3-1.2,0.7-1.9,1c-0.4,0.2-0.7,0.4-1.1,0.6
		c-0.4,0.2-0.8,0.4-1.2,0.6c-0.2,0.1-0.3,0.1-0.5,0.2c-0.7,0.2-1.1-0.1-1.2-0.8C49.9,46.3,49.9,46.2,49.9,46.2z"/>
	<line fill="none" stroke="#000000" stroke-miterlimit="10" x1="2.8" y1="11.9" x2="43" y2="35.7"/>
	<line fill="none" stroke="#000000" stroke-miterlimit="10" x1="43" y1="35.7" x2="68.7" y2="22.8"/>
	<path fill="none" stroke="#000000" stroke-miterlimit="10" d="M42.4,56.7c3.2-1.8,24.5-13.9,24.5-13.9l1.8-20L28.2,2.1L2.8,11.9
		l0.7,19.8L42,57C42,57,42.2,56.9,42.4,56.7z"/>
	<line fill="none" stroke="#000000" stroke-miterlimit="10" x1="42" y1="57" x2="43" y2="35.7"/>
</g>
<text transform="matrix(1 0 0 1 71.6245 37.0005)" font-family="'HelveticaNeue'" font-size="16" letter-spacing="4">strobe</text>
</svg>
